<svg width="32" height="32" viewBox="0 0 32 32" xmlns="http://www.w3.org/2000/svg">
  <circle cx="16" cy="16" r="16" fill="#2775ca"/>
  <path d="M15.75 27.5c6.489 0 11.75-5.261 11.75-11.75S22.239 4 15.75 4 4 9.261 4 15.75 9.261 27.5 15.75 27.5z" fill="#2775ca"/>
  <path d="M16 21.5c-3.038 0-5.5-2.462-5.5-5.5s2.462-5.5 5.5-5.5 5.5 2.462 5.5 5.5-2.462 5.5-5.5 5.5zm0-9.5c-2.206 0-4 1.794-4 4s1.794 4 4 4 4-1.794 4-4-1.794-4-4-4z" fill="#ffffff"/>
  <path d="M16 18.5c-1.378 0-2.5-1.122-2.5-2.5s1.122-2.5 2.5-2.5 2.5 1.122 2.5 2.5-1.122 2.5-2.5 2.5z" fill="#2775ca"/>
</svg>