<svg width="32" height="32" viewBox="0 0 32 32" xmlns="http://www.w3.org/2000/svg">
  <circle cx="16" cy="16" r="16" fill="#26a17b"/>
  <path d="M17.922 17.383v-.002c-.11.008-.677.042-1.942.042-.896 0-1.387-.025-1.478-.031v.003c-1.225-.132-2.189-.61-2.189-2.062v-.001c0-1.61 1.17-1.917 2.189-2.062v.003c.091-.007.582-.03 1.478-.03 1.265 0 1.832.033 1.942.041v.002c1.225.13 2.189.61 2.189 2.062 0 1.61-1.17 1.918-2.189 2.062zm4.294-2.845c0-3.327-2.686-6.013-6.013-6.013-3.327 0-6.013 2.686-6.013 6.013 0 3.327 2.686 6.013 6.013 6.013 3.327 0 6.013-2.686 6.013-6.013zm-1.6-2.014v-.001c0-.612-.41-1.16-1.074-1.393-.246-.087-.52-.138-.812-.158v-1.054c0-.137-.11-.247-.247-.247h-.789c-.137 0-.247.11-.247.247v1.035h-.427v-1.035c0-.137-.11-.247-.247-.247h-.79c-.136 0-.246.11-.246.247v1.054c-.292.02-.566.071-.812.158-.664.233-1.074.781-1.074 1.393v.001c0 .972.831 1.67 2.042 1.858v1.78c-1.211-.187-2.042-.886-2.042-1.858v-.001c0-.137-.11-.246-.246-.246h-.789c-.136 0-.246.11-.246.246v.001c0 1.213 1.071 2.262 2.488 2.56v1.054c0 .137.11.246.246.246h.79c.136 0 .246-.109.246-.246V18.4h.427v1.054c0 .137.11.246.247.246h.789c.137 0 .247-.109.247-.246V18.4c1.417-.298 2.488-1.347 2.488-2.56v-.001c0-.137-.11-.246-.247-.246h-.789c-.137 0-.247.109-.247.246v.001c0 .972-.831 1.67-2.042 1.858v-1.78c1.211-.187 2.042-.886 2.042-1.858z" fill="#ffffff"/>
</svg>